<svg xmlns="http://www.w3.org/2000/svg" width="3000" height="3000" fill="none" viewBox="0 0 3000 3000" id="businessman-is-achieving-goals"><path fill="#203752" d="M1027.61 1366.64C1300.35 1366.64 1521.44 1138.94 1521.44 858.051C1521.44 577.162 1300.35 349.457 1027.61 349.457C754.881 349.457 533.786 577.162 533.786 858.051C533.786 1138.94 754.881 1366.64 1027.61 1366.64Z"></path><path fill="#1B81A6" d="M1027.62 1244.23C1234.69 1244.23 1402.56 1071.33 1402.56 858.043C1402.56 644.755 1234.69 471.852 1027.62 471.852C820.541 471.852 652.674 644.755 652.674 858.043C652.674 1071.33 820.541 1244.23 1027.62 1244.23Z"></path><path fill="#203752" d="M1027.61 1119.19C1167.67 1119.19 1281.21 1002.27 1281.21 858.042C1281.21 713.812 1167.67 596.89 1027.61 596.89C887.558 596.89 774.021 713.812 774.021 858.042C774.021 1002.27 887.558 1119.19 1027.61 1119.19Z"></path><path fill="#1B81A6" d="M1027.62 1007.52C1107.78 1007.52 1172.76 940.596 1172.76 858.045C1172.76 775.493 1107.78 708.572 1027.62 708.572C947.462 708.572 882.482 775.493 882.482 858.045C882.482 940.596 947.462 1007.52 1027.62 1007.52Z"></path><path fill="#203752" d="M1027.61 918.81C1060.2 918.81 1086.62 891.607 1086.62 858.049C1086.62 824.491 1060.2 797.287 1027.61 797.287C995.027 797.287 968.61 824.491 968.61 858.049C968.61 891.607 995.027 918.81 1027.61 918.81Z"></path><path fill="#31DECD" d="M1910.16 739.918C1849.92 779.117 1785.47 811.754 1718.2 837.008C1698.46 844.449 1678.13 851.363 1661.19 863.902C1644.26 876.441 1630.78 895.836 1631.25 916.871C1631.48 927.945 1635.47 938.551 1639.4 948.863C1650.41 977.926 1661.48 1006.93 1672.5 1035.99C1386.62 1208.32 1085.27 1355.62 772.618 1472.63C756.094 1413.75 733.126 1369.04 705.235 1327.67C692.227 1308.39 675.118 1288.12 651.915 1286.71C638.438 1285.89 625.489 1291.75 613.477 1297.91C550.313 1330.25 493.536 1373.61 432.481 1409.76C371.426 1445.91 303.575 1475.27 229.219 1482.54C277.442 1529.29 339.961 1561.23 406.114 1572.83C377.168 1623.22 344.356 1671.32 308.028 1716.68C429.61 1701.21 544.043 1668.16 654.903 1621.34C682.325 1684.51 718.594 1710.17 770.977 1719.14C823.418 1728.1 876.797 1714.33 927.774 1699.1C1234.1 1607.75 1523.5 1459.8 1776.8 1264.86C1835.74 1219.51 1894.92 1168.71 1922.46 1099.62C1945.02 1043.02 1943.85 980.035 1941.15 919.156C1938.63 860.797 1934.71 800.914 1910.16 739.918Z"></path><path fill="#FFC5A6" d="M2200.37 1569.38C2182.5 1595.8 2143.77 1594.1 2112.25 1589.12C2048.79 1579.22 1985.51 1568.15 1922.46 1555.9C1907.58 1553.03 1891.29 1549.16 1882.33 1536.92C1875.12 1527.07 1874.41 1514.06 1874 1501.88C1871.72 1436.02 1869.43 1370.1 1867.27 1304.24C1866.45 1281.8 1865.68 1259.42 1864.92 1236.97C1952.46 1198.42 2054.42 1180.37 2157.13 1174.1C2162.64 1173.75 2168.79 1173.63 2173.13 1177.09C2177.87 1180.9 2178.75 1187.7 2179.34 1193.73C2185.25 1259.06 2191.17 1324.34 2197.09 1389.61C2200.78 1430.63 2204.53 1471.64 2208.22 1512.72C2209.92 1532.17 2211.21 1553.26 2200.37 1569.38Z"></path><path fill="#FF9F6B" d="M2197.03 1389.67C2195.56 1389.96 2194.22 1390.14 2192.75 1390.37 2102.34 1403.26 1959.14 1399.39 1866.5 1284.49 1865.68 1262.05 1865.62 1259.41 1864.86 1237.03 1952.4 1198.48 2054.35 1180.43 2157.07 1174.16 2162.58 1173.81 2168.73 1173.69 2173.06 1177.15 2177.81 1180.96 2178.69 1187.75 2179.27 1193.79 2185.19 1259.06 2191.11 1324.34 2197.03 1389.67zM1788.98 987.6C1767.42 993.752 1752.54 1013.26 1741.76 1032.89 1736.89 1041.68 1732.5 1050.94 1730.68 1060.84 1724.76 1093.42 1749.37 1125.47 1779.67 1138.95 1809.96 1152.42 1844.41 1151.66 1877.52 1150.08 1988.61 1144.75 2099.41 1132.79 2209.1 1114.34 2223.57 1111.94 2238.22 1109.3 2251.35 1102.79 2289.61 1083.87 2305.49 1030.96 2285.68 993.224 2271.56 966.33 2243.44 948.928 2214.08 941.076 2184.72 933.225 2153.85 933.635 2123.49 934.572 2010.64 937.795 1899.37 956.252 1788.98 987.6z"></path><path fill="#FFC5A6" d="M1792.97 957.252C1789.63 1015.2 1791.39 1073.5 1798.3 1131.16C1804.63 1184.24 1817.4 1240.67 1857.01 1276.59C1868.79 1287.25 1882.44 1295.63 1896.62 1302.72C1982.52 1345.61 2090.92 1339.4 2171.31 1286.96C2179.92 1281.33 2188.24 1275.24 2195.57 1268.03C2218.01 1246.06 2230.14 1215.3 2234.94 1184.24C2239.75 1153.19 2237.87 1121.61 2236 1090.26C2233.01 1040.69 2230.02 991.119 2224.16 941.842C2222.64 929.01 2220.82 915.885 2214.55 904.576C2204.48 886.353 2184.73 875.982 2165.57 867.896C2113.24 845.748 2055.94 832.916 1999.46 839.303C1971.62 842.408 1944.55 850.142 1917.6 857.76C1899.03 863.033 1880.28 868.424 1863.75 878.385C1845.24 889.517 1830.47 905.865 1816 921.92C1806.56 932.349 1793.79 943.365 1792.97 957.252Z"></path><path fill="#203752" d="M2233.83 1055.68C2229.26 1050.35 2226.8 1043.61 2224.57 1036.93C2209.57 992.104 2200.08 945.463 2196.33 898.354C2165.39 921.499 2127.31 937.143 2088.05 944.877C2048.79 952.612 2008.24 952.67 1968.46 948.276C1955.1 946.811 1941.68 944.819 1928.91 940.541C1906.35 932.924 1886.78 918.393 1868.79 902.69C1863.69 968.901 1835.86 1034.23 1791.97 1086.21C1756 1065.29 1736.84 1023.98 1728.34 983.256C1718.85 937.846 1720.2 889.799 1735.26 845.913C1750.31 802.026 1779.49 762.592 1818.81 737.924C1834.75 727.905 1853.09 720.17 1872.25 724.565C1893.93 685.952 1938.99 667.612 1981.58 655.424C2031.04 641.303 2191.06 628.588 2272.44 739.448C2311.47 792.592 2303.73 870.463 2295.06 913.53C2284.81 964.624 2266.94 1015.66 2233.83 1055.68Z"></path><path fill="#203752" d="M1875.76 983.209C1909.4 969.322 1947.31 968.209 1981.88 979.283 1989.08 981.568 1992.07 970.26 1984.92 967.975 1947.19 955.904 1906.47 958.014 1869.9 973.072 1862.99 975.943 1868.91 986.021 1875.76 983.209zM2055.23 980.511C2091.15 968.323 2130 968.675 2165.68 981.507 2172.77 984.085 2175.76 972.718 2168.73 970.198 2131.35 956.722 2089.92 956.37 2052.3 969.202 2045.21 971.605 2048.08 982.972 2055.23 980.511zM1924.51 1020.65C1924.16 1020.71 1923.81 1020.76 1923.45 1020.88 1922.69 1021.17 1921.81 1021.47 1921.11 1021.94 1919.59 1022.87 1918.53 1023.99 1917.54 1025.45 1917.3 1025.74 1917.13 1026.1 1917.01 1026.39 1916.66 1027.15 1916.31 1027.91 1916.13 1028.73 1915.78 1030.43 1915.78 1032.01 1916.13 1033.65 1916.77 1036.53 1918.77 1038.99 1921.23 1040.51 1923.81 1042.09 1927.2 1042.33 1930.08 1041.51 1935.41 1039.92 1939.68 1035.18 1939.74 1029.49 1939.8 1026.56 1938.51 1023.69 1936.46 1021.64 1934.53 1019.71 1931.66 1018.42 1928.84 1018.65 1926.85 1018.83 1925.15 1019.42 1923.57 1020.65 1922.46 1021.53 1921.46 1022.58 1920.82 1023.87 1920.11 1025.28 1919.59 1026.92 1919.65 1028.5 1919.65 1029.26 1919.76 1030.14 1920 1030.9 1920.23 1031.66 1920.58 1032.54 1921.05 1033.19 1921.4 1033.89 1921.93 1034.47 1922.63 1034.88 1923.22 1035.41 1923.86 1035.76 1924.63 1035.94 1926.03 1036.29 1927.85 1036.12 1929.08 1035.35 1930.37 1034.53 1931.48 1033.3 1931.83 1031.78 1932.13 1030.37 1932.18 1028.56 1931.25 1027.33 1931.07 1027.09 1930.95 1026.86 1930.84 1026.62 1931.01 1027.09 1931.25 1027.62 1931.42 1028.09 1931.36 1027.85 1931.31 1027.68 1931.25 1027.44 1931.31 1027.97 1931.36 1028.44 1931.42 1028.97 1931.36 1028.62 1931.36 1028.32 1931.42 1028.03 1931.36 1028.5 1931.31 1029.03 1931.25 1029.49 1931.31 1029.14 1931.36 1028.85 1931.54 1028.56 1931.36 1029.03 1931.19 1029.49 1930.95 1029.96 1931.13 1029.61 1931.31 1029.26 1931.54 1028.97 1931.25 1029.38 1930.95 1029.79 1930.6 1030.2 1930.84 1029.9 1931.07 1029.67 1931.31 1029.49 1930.9 1029.79 1930.49 1030.14 1930.08 1030.43 1930.37 1030.26 1930.6 1030.08 1930.95 1029.9 1930.49 1030.08 1929.96 1030.31 1929.49 1030.49 1929.78 1030.37 1930.02 1030.31 1930.31 1030.26 1929.78 1030.31 1929.31 1030.37 1928.79 1030.43 1929.14 1030.37 1929.43 1030.37 1929.78 1030.43 1929.31 1030.37 1928.79 1030.31 1928.32 1030.26 1928.67 1030.31 1928.96 1030.37 1929.26 1030.49 1928.79 1030.31 1928.32 1030.14 1927.85 1029.9 1928.2 1030.08 1928.55 1030.26 1928.84 1030.49 1928.43 1030.2 1928.02 1029.9 1927.61 1029.55 1928.02 1029.85 1928.38 1030.2 1928.67 1030.61 1928.38 1030.2 1928.02 1029.79 1927.73 1029.38 1928.02 1029.73 1928.2 1030.14 1928.43 1030.55 1928.26 1030.08 1928.02 1029.55 1927.85 1029.08 1928.02 1029.49 1928.14 1029.96 1928.2 1030.37 1928.14 1029.85 1928.08 1029.38 1928.02 1028.85 1928.08 1029.26 1928.08 1029.67 1928.02 1030.08 1928.08 1029.61 1928.14 1029.08 1928.2 1028.62 1928.14 1029.14 1927.97 1029.61 1927.79 1030.14 1927.97 1029.67 1928.14 1029.2 1928.38 1028.73 1928.14 1029.26 1927.85 1029.79 1927.5 1030.26 1927.79 1029.85 1928.08 1029.44 1928.43 1029.03 1928.02 1029.55 1927.56 1030.02 1927.03 1030.43 1927.44 1030.14 1927.85 1029.79 1928.26 1029.49 1927.67 1029.96 1927.03 1030.31 1926.38 1030.61 1926.85 1030.43 1927.38 1030.2 1927.85 1030.02 1927.26 1030.26 1926.68 1030.43 1926.03 1030.49 1926.56 1030.43 1927.03 1030.37 1927.56 1030.31 1927.09 1030.37 1926.62 1030.37 1926.15 1030.31 1926.62 1030.37 1927.15 1030.43 1927.61 1030.49 1927.15 1030.43 1926.74 1030.31 1926.27 1030.14 1926.74 1030.31 1927.2 1030.49 1927.67 1030.72 1927.32 1030.55 1926.97 1030.37 1926.62 1030.14 1927.03 1030.43 1927.44 1030.72 1927.85 1031.08 1927.5 1030.78 1927.15 1030.49 1926.91 1030.14 1927.2 1030.55 1927.56 1030.96 1927.85 1031.37 1927.56 1031.02 1927.32 1030.61 1927.15 1030.2 1927.32 1030.67 1927.56 1031.19 1927.73 1031.66 1927.56 1031.25 1927.44 1030.78 1927.38 1030.37 1927.44 1030.9 1927.5 1031.37 1927.56 1031.9 1927.5 1031.49 1927.5 1031.13 1927.56 1030.72 1927.5 1031.19 1927.44 1031.72 1927.38 1032.19 1927.44 1031.78 1927.56 1031.43 1927.67 1031.02 1927.5 1031.49 1927.32 1031.96 1927.09 1032.42 1927.26 1032.07 1927.44 1031.72 1927.67 1031.37 1927.38 1031.78 1927.09 1032.19 1926.74 1032.6 1927.03 1032.19 1927.38 1031.84 1927.79 1031.49 1927.38 1031.78 1926.97 1032.13 1926.56 1032.42 1926.91 1032.13 1927.32 1031.96 1927.73 1031.78 1927.26 1031.96 1926.74 1032.19 1926.27 1032.37 1926.62 1032.25 1927.03 1032.13 1927.44 1032.07 1928.84 1031.9 1930.37 1030.49 1931.07 1029.32 1931.77 1028.09 1932.07 1026.33 1931.66 1024.92 1931.19 1023.46 1930.31 1022.05 1928.9 1021.29 1928.43 1021.12 1927.97 1020.94 1927.5 1020.71 1926.56 1020.35 1925.56 1020.35 1924.51 1020.65zM2110.9 1015.08C2110.08 1015.26 2109.31 1015.44 2108.55 1015.73 2107.73 1016.02 2106.91 1016.37 2106.15 1016.78 2105.39 1017.19 2104.74 1017.78 2104.04 1018.31 2103.1 1019.07 2102.28 1020.06 2101.76 1021.12 2101.05 1022.58 2100.53 1024.22 2100.64 1025.92 2100.7 1026.69 2100.76 1027.62 2101.05 1028.38 2101.35 1029.15 2101.64 1030.03 2102.11 1030.73 2103.1 1032.25 2104.16 1033.31 2105.68 1034.36 2106.03 1034.6 2106.33 1034.77 2106.68 1034.89 2107.44 1035.24 2108.2 1035.59 2109.02 1035.71 2110.72 1036 2112.36 1036.06 2114.06 1035.59 2115.23 1035.24 2116.52 1034.71 2117.52 1033.95 2118.22 1033.42 2118.92 1032.95 2119.51 1032.31 2120.15 1031.67 2120.68 1030.9 2121.15 1030.2 2121.91 1029.15 2122.38 1027.97 2122.79 1026.74 2122.91 1026.39 2123.03 1026.04 2123.08 1025.63 2123.2 1024.75 2123.38 1023.87 2123.38 1022.99 2123.32 1021.24 2122.97 1019.54 2122.09 1018.01 2121.68 1017.31 2121.15 1016.61 2120.56 1016.02 2119.98 1015.49 2119.28 1014.91 2118.51 1014.56 2117.17 1013.97 2116.4 1013.74 2114.94 1013.62 2114.12 1013.56 2113.24 1013.68 2112.48 1013.85 2111.89 1013.97 2111.36 1014.2 2110.84 1014.44 2110.25 1014.67 2109.67 1014.91 2109.14 1015.26 2107.61 1016.31 2106.38 1017.49 2105.45 1019.07 2104.57 1020.65 2104.22 1022.29 2104.04 1024.05 2103.92 1025.57 2104.28 1027.04 2104.86 1028.38 2105.62 1030.26 2106.91 1031.78 2108.67 1032.78 2109.96 1033.48 2111.6 1033.72 2113.06 1033.36 2114.47 1033.01 2115.99 1031.9 2116.7 1030.61 2117.4 1029.26 2117.75 1027.68 2117.28 1026.22 2116.81 1024.69 2115.94 1023.4 2114.53 1022.58 2114.35 1022.53 2114.24 1022.41 2114.06 1022.29 2114.47 1022.58 2114.88 1022.88 2115.29 1023.23 2115.11 1023.11 2115 1022.94 2114.82 1022.76 2115.11 1023.17 2115.47 1023.58 2115.76 1023.99 2115.58 1023.76 2115.41 1023.52 2115.29 1023.23 2115.47 1023.7 2115.7 1024.22 2115.88 1024.69 2115.7 1024.34 2115.64 1023.93 2115.58 1023.52 2115.64 1024.05 2115.7 1024.52 2115.76 1025.04 2115.7 1024.63 2115.7 1024.22 2115.76 1023.81 2115.7 1024.28 2115.64 1024.81 2115.58 1025.28 2115.64 1024.81 2115.76 1024.4 2115.94 1023.93 2115.76 1024.4 2115.58 1024.87 2115.35 1025.34 2115.53 1024.93 2115.7 1024.58 2115.99 1024.28 2115.7 1024.69 2115.41 1025.1 2115.06 1025.51 2115.35 1025.16 2115.7 1024.81 2116.05 1024.52 2115.64 1024.81 2115.23 1025.16 2114.82 1025.45 2115.17 1025.22 2115.52 1024.99 2115.88 1024.81 2115.41 1024.99 2114.88 1025.22 2114.41 1025.4 2114.76 1025.28 2115.06 1025.16 2115.47 1025.1 2114.94 1025.16 2114.47 1025.22 2113.94 1025.28 2114.24 1025.22 2114.53 1025.22 2114.82 1025.28 2114.35 1025.22 2113.83 1025.16 2113.36 1025.1 2113.59 1025.16 2113.77 1025.22 2114 1025.28 2113.53 1025.1 2113.06 1024.93 2112.6 1024.69 2112.83 1024.81 2113.06 1024.93 2113.3 1025.1 2112.89 1024.81 2112.48 1024.52 2112.07 1024.17 2112.24 1024.34 2112.42 1024.52 2112.6 1024.69 2112.3 1024.28 2111.95 1023.87 2111.66 1023.46 2111.83 1023.7 2111.95 1023.93 2112.07 1024.22 2111.89 1023.76 2111.66 1023.23 2111.48 1022.76 2111.6 1023.11 2111.72 1023.52 2111.78 1023.93 2111.72 1023.4 2111.66 1022.94 2111.6 1022.41 2111.66 1022.88 2111.66 1023.35 2111.6 1023.76 2111.66 1023.29 2111.72 1022.76 2111.78 1022.29 2111.72 1022.88 2111.54 1023.46 2111.31 1024.05 2111.48 1023.58 2111.66 1023.11 2111.89 1022.64 2111.6 1023.29 2111.31 1023.81 2110.9 1024.4 2111.19 1023.99 2111.48 1023.58 2111.83 1023.17 2111.42 1023.7 2110.95 1024.17 2110.43 1024.58 2110.84 1024.28 2111.25 1023.93 2111.66 1023.64 2111.19 1023.99 2110.72 1024.22 2110.25 1024.46 2110.72 1024.28 2111.25 1024.05 2111.72 1023.87 2111.31 1024.05 2110.84 1024.17 2110.43 1024.22 2110.95 1024.17 2111.42 1024.11 2111.95 1024.05 2111.54 1024.11 2111.19 1024.11 2110.78 1024.05 2111.25 1024.11 2111.78 1024.17 2112.24 1024.22 2111.83 1024.17 2111.48 1024.05 2111.13 1023.93 2111.6 1024.11 2112.07 1024.28 2112.54 1024.52 2112.13 1024.34 2111.78 1024.11 2111.42 1023.87 2111.83 1024.17 2112.24 1024.46 2112.65 1024.81 2112.24 1024.52 2111.95 1024.17 2111.6 1023.81 2111.89 1024.22 2112.24 1024.63 2112.54 1025.04 2112.3 1024.69 2112.07 1024.34 2111.89 1023.93 2112.07 1024.4 2112.3 1024.93 2112.48 1025.4 2112.36 1025.04 2112.24 1024.69 2112.19 1024.34 2112.24 1024.87 2112.3 1025.34 2112.36 1025.86 2112.36 1025.57 2112.36 1025.34 2112.36 1025.04 2112.3 1025.51 2112.24 1026.04 2112.19 1026.51 2112.24 1026.16 2112.3 1025.86 2112.48 1025.57 2112.3 1026.04 2112.13 1026.51 2111.89 1026.98 2112.01 1026.69 2112.19 1026.39 2112.42 1026.1 2112.13 1026.51 2111.83 1026.92 2111.48 1027.33 2111.77 1026.98 2112.07 1026.69 2112.36 1026.45 2111.95 1026.74 2111.54 1027.1 2111.13 1027.39 2111.66 1026.98 2112.19 1026.69 2112.83 1026.45 2112.36 1026.63 2111.83 1026.86 2111.36 1027.04 2112.19 1026.74 2113.01 1026.51 2113.83 1026.33 2115.29 1026.04 2116.76 1024.81 2117.46 1023.58 2118.16 1022.35 2118.45 1020.59 2118.04 1019.19 2117.58 1017.72 2116.7 1016.31 2115.29 1015.55 2113.88 1014.91 2112.48 1014.79 2110.9 1015.08zM1965.65 1201.29C2013.87 1219.93 2068.95 1199.77 2094.32 1155.01 2098.01 1148.44 2087.87 1142.64 2084.12 1149.2 2061.1 1189.75 2012.05 1206.74 1968.63 1189.99 1961.66 1187.23 1958.67 1198.6 1965.65 1201.29z"></path><path fill="#31DECD" d="M1849.98 1417.32C1849.98 1417.32 1487.23 1356.8 1357.79 1783.18L1284.73 2115.64L1027.62 2059.04C1027.62 2059.04 989.533 2103.4 964.982 2211.33C964.982 2211.33 1204.75 2387.81 1312.68 2410.25C1420.61 2432.75 1547.58 2341.7 1609.81 2196.5C1609.81 2196.5 1604.06 2508.46 1657.44 2541.8C1710.88 2575.14 2051.96 2572.09 2240.28 2559.78C2240.28 2559.78 2432.23 2652.13 2535.18 2621.19C2638.13 2590.25 2725.9 2336.78 2762.35 2129.3C2798.79 1921.82 2733.17 1438.42 2238.99 1438.42L2036.54 1478.26L1849.98 1417.32Z"></path><path fill="#1B81A6" d="M1952.23 1541.02L1998.4 1602.42L1912.15 2430L2019.32 2511.97L2134.51 2443.42L2064.9 1605.41L2120.57 1554.26L2036.01 1479.96L1952.23 1541.02Z"></path><path fill="#31DECD" d="M1864.87 1366.23L1816.06 1433.2L1938.81 1584.79L2038.24 1487.34L2110.31 1593.16L2267.93 1441.46L2203.83 1369.63L2038.65 1468.54L1864.87 1366.23Z"></path><path fill="#FFC5A6" d="M1980.24 2169.09C1947.48 2137.15 1929.38 2093.62 1908.99 2052.72 1907.64 2050.02 1906.12 2047.15 1903.54 2045.57 1897.44 2041.88 1890 2047.09 1885.08 2052.25 1875.59 2062.27 1867.15 2073.23 1859.94 2085 1856.66 2090.34 1853.62 2095.96 1852.74 2102.17 1851.04 2114.13 1857.66 2125.55 1864.46 2135.45 1887.01 2168.38 1914.38 2197.8 1943.38 2225.28 1951.76 2233.25 1960.55 2241.22 1971.27 2245.49 1981.99 2249.83 1995.18 2249.89 2004.2 2242.74 2015.8 2233.6 2016.92 2215.55 2010.71 2202.13 2004.49 2188.71 1991.49 2180.1 1980.24 2169.09zM877.206 2045.86C869.061 2066.19 867.362 2089.04 872.459 2110.37 875.272 2122.27 880.37 2133.87 888.807 2142.66 897.303 2151.45 909.491 2157.13 921.678 2155.84 927.069 2155.25 932.225 2153.44 937.147 2151.15 942.772 2148.52 948.221 2145.24 952.03 2140.31 957.831 2132.75 958.827 2122.21 956.19 2113.01 953.553 2103.81 947.752 2095.84 941.131 2088.99 923.553 2070.88 900.233 2059.57 877.206 2045.86z"></path><path fill="#FF9F6B" d="M1641.15 1850.45C1641.15 1850.45 1757.52 1845.06 1865.92 1844.65C1940.68 1844.36 1991.31 1920.82 1961.6 1989.44C1937.58 2044.92 1902.54 2107.03 1853.14 2156.43C1735.54 2274.03 1614.96 2209.87 1605.29 2278.13C1595.62 2346.39 1695 2267.46 1672.97 2335.37C1650.94 2403.28 1502.58 2370.24 1551.33 2238.75C1600.08 2107.27 1727.11 2210.28 1834.98 2059.22C1934.59 1919.65 1863.92 1900.14 1634.76 1924.63C1399.51 1949.77 1641.15 1850.45 1641.15 1850.45Z"></path><path fill="#FFC5A6" d="M1465.95 2346.85H1352.4V2567.11H1465.95V2346.85Z"></path><path fill="#FF9F6B" d="M1603.42 2640.17C1586.55 2587.44 1567.97 2544.43 1541.66 2504.82 1455.94 2497.2 1370.45 2499.08 1285.55 2507.57 1260.3 2554.27 1250.1 2594.29 1236.21 2644.39 1319.24 2653.65 1486.23 2652.54 1603.42 2640.17zM1532.46 2239.81C1534.45 2281.29 1530.94 2323.01 1521.91 2363.56 1445.8 2367.83 1370.92 2368.71 1296.27 2365.08 1285.78 2323.3 1279.45 2283.75 1278.87 2248.77 1362.48 2233.65 1448.32 2230.72 1532.46 2239.81z"></path><path fill="#FF9F6B" d="M1170.7 1848.58C1170.7 1848.58 1054.34 1843.18 945.939 1842.77C871.173 1842.48 820.548 1918.95 850.255 1987.56C874.279 2043.05 909.318 2105.16 958.712 2154.55C1076.31 2272.15 1196.9 2207.99 1206.56 2276.25C1216.23 2344.51 1116.86 2265.59 1138.89 2333.5C1160.92 2401.41 1309.28 2368.36 1260.53 2236.88C1211.78 2105.39 1084.75 2208.4 976.876 2057.34C877.267 1917.77 947.931 1898.26 1177.09 1922.75C1412.29 1947.89 1170.7 1848.58 1170.7 1848.58Z"></path><path fill="#FFC5A6" d="M1105.31 1758.51C1083.75 1762.32 1069.75 1783.18 1074.14 1804.63C1087.27 1868.14 1118.09 1999.45 1169.36 2120.27C1240.31 2287.44 1322.52 2291.25 1401.92 2291.25H1408.42C1487.81 2291.25 1571.49 2289.31 1642.44 2122.15C1693.71 2001.33 1724.53 1869.96 1737.66 1806.44C1742.11 1784.94 1728.17 1764.2 1706.55 1760.33C1622.87 1745.39 1524.61 1734.37 1462.97 1728.22C1422.78 1724.18 1382.29 1724.06 1342.09 1727.93C1282.03 1733.67 1187.46 1743.98 1105.31 1758.51Z"></path><path fill="#FF9F6B" d="M1592.23 1952.87C1592.46 1998.75 1590.12 2043.4 1580.04 2095.66C1535.1 2104.51 1488.92 2104.8 1443.1 2105.04C1377.6 2105.33 1312.09 2105.62 1246.58 2103.69C1244.59 2103.63 1242.48 2103.52 1240.84 2102.46C1239.08 2101.29 1238.08 2099.24 1237.26 2097.3C1217.4 2051.02 1208.85 1999.92 1212.54 1949.71C1333.83 1952.46 1468.12 1948.01 1592.23 1952.87Z"></path><path fill="#FFC5A6" d="M874.86 2101.64C875.388 2116.99 882.478 2131.58 892.497 2143.18 902.517 2154.78 915.407 2163.63 928.884 2171.01 941.247 2177.81 954.958 2183.67 969.021 2182.5 977.81 2181.73 986.13 2178.34 993.864 2174.12 1013.79 2163.28 1030.78 2146.99 1042.44 2127.54 1049.35 2115.93 1054.57 2102.87 1054.45 2089.39 1054.33 2062.85 1032.13 2039.06 1006.05 2034.14 979.978 2029.22 952.263 2041.7 935.974 2062.61 928.532 2072.22 923.142 2083.47 914.177 2091.68 903.689 2101.52 888.396 2106.03 874.86 2101.64zM2008.95 2178.69C1962.83 2161.64 1920.24 2135.15 1884.61 2101.34 1874.59 2091.85 1865.04 2081.77 1853.5 2074.27 1841.95 2066.77 1827.78 2062.09 1814.3 2064.96 1804.04 2067.12 1795.08 2073.34 1787.4 2080.48 1774.98 2092.03 1765.02 2106.21 1758.34 2121.79 1754.47 2130.99 1751.66 2140.89 1752.66 2150.85 1753.89 2162.87 1760.51 2173.65 1767.6 2183.43 1794.96 2220.87 1832.64 2250.58 1875.41 2268.51 1897.91 2277.94 1922.46 2284.57 1940.39 2301.09 1959.26 2273.96 1975.67 2245.19 1989.32 2215.13 1994.88 2202.89 2000.22 2190.23 2008.95 2178.69z"></path><path fill="#31DECD" d="M1995.41 2147.05C1995.41 2147.05 1932.3 2215.72 1880.68 2324.41C1880.68 2324.41 2086.81 2511.68 2240.04 2548.59C2393.26 2585.51 2459.88 2326.35 2459.88 2326.35C2459.88 2326.35 2111.31 2206.58 1995.41 2147.05Z"></path><path fill="#203752" d="M655.251 1302.83C666.501 1305.99 665.27 1319.7 661.462 1328.14C657.419 1336.99 651.091 1345.02 645.114 1352.63C634.333 1366.29 622.614 1379.29 613.18 1393.94C603.395 1409.23 597.302 1426.05 596.247 1444.27C595.075 1464.49 599.411 1484.7 604.509 1504.16C614.997 1543.77 629.528 1582.32 647.282 1619.18C662.868 1651.58 679.45 1686.62 710.622 1706.72C731.598 1720.25 755.563 1724.59 779.997 1726.34C787.555 1726.87 787.555 1715.15 780.055 1714.63C758.786 1713.1 738.102 1709.59 719.528 1698.45C687.77 1679.53 671.54 1642.97 656.247 1610.91C638.317 1573.36 623.727 1533.92 613.825 1493.43C608.786 1472.93 605.094 1451.01 609.899 1430.09C614.059 1412.11 624.548 1396.75 635.856 1382.52C648.161 1367.05 663.044 1351.99 671.54 1334C678.747 1318.65 677.223 1296.91 658.18 1291.58C650.973 1289.47 647.927 1300.78 655.251 1302.83Z"></path><path fill="#203752" d="M623.497 1410.06C617.345 1433.03 630.001 1455.24 649.044 1467.72 670.724 1481.9 699.142 1485.65 724.513 1484.77 781.115 1482.89 835.783 1458.69 887.462 1437.72 918.4 1425.12 949.103 1411.88 979.63 1398.4 986.544 1395.35 980.626 1385.22 973.771 1388.26 925.021 1409.71 876.036 1430.74 826.056 1449.08 779.708 1466.08 727.911 1481.84 678.634 1468.01 654.611 1461.27 627.13 1441.76 634.747 1413.11 636.74 1405.78 625.431 1402.74 623.497 1410.06zM1632.25 892.848C1622.4 913.356 1630.08 939.899 1650.65 950.563 1662.89 956.949 1677.42 957.946 1691.02 958.356 1706.6 958.824 1722.13 957.477 1737.42 954.664 1744.86 953.317 1741.88 941.95 1734.49 943.297 1722.01 945.582 1709.42 946.754 1696.7 946.696 1684.86 946.637 1672.33 946.285 1661.08 942.36 1643.67 936.207 1634.24 915.641 1642.44 898.649 1645.72 891.91 1635.53 886.051 1632.25 892.848zM1534.57 1119.9C1613.2 1075.95 1690.72 1030.02 1767.07 982.145 1773.46 978.16 1767.6 967.965 1761.21 972.008 1684.86 1019.82 1607.34 1065.76 1528.71 1109.76 1522.09 1113.45 1527.95 1123.59 1534.57 1119.9zM1002.3 1460.51C968.084 1467.25 938.494 1493.68 934.568 1529.3 930.876 1563.17 956.072 1605.24 994.685 1597.86 1016.95 1593.58 1031.25 1574.36 1043.55 1557.08 1047.89 1550.92 1037.69 1545.18 1033.36 1551.28 1022.11 1567.15 1007.17 1587.78 985.251 1587.02 965.623 1586.31 951.443 1568.09 947.341 1550.28 938.435 1511.61 968.962 1478.97 1005.23 1471.88 1012.67 1470.42 1009.69 1459.11 1002.3 1460.51z"></path><path fill="#203752" d="M1008.28 1537.56C1012.73 1534.93 1017.19 1532.35 1021.64 1529.71 1023.69 1528.48 1025.74 1527.31 1027.79 1526.08 1028.85 1525.49 1029.84 1524.85 1030.9 1524.26 1031.6 1523.85 1032.25 1523.44 1032.95 1523.03 1033.83 1522.39 1034 1522.33 1033.59 1522.85 1032.66 1522.62 1031.66 1522.33 1030.72 1522.09 1030.43 1521.98 1031.43 1523.56 1031.54 1523.73 1032.07 1524.79 1032.6 1525.9 1033.18 1526.96 1034.47 1529.48 1035.7 1532 1036.99 1534.52 1039.63 1539.73 1042.21 1544.94 1044.84 1550.16 1050 1560.41 1055.1 1570.67 1060.25 1580.92 1063.65 1587.66 1073.79 1581.8 1070.39 1575.06 1062.01 1558.36 1053.63 1541.6 1045.25 1524.91 1043.44 1521.27 1041.91 1516.64 1039.04 1513.66 1035.47 1509.96 1030.61 1510.96 1026.68 1513.25 1018.59 1517.93 1010.63 1522.74 1002.6 1527.43 995.918 1531.23 1001.78 1541.37 1008.28 1537.56zM1118.5 1420.55C1099.8 1433.2 1091.84 1456.93 1096.87 1478.67 1099.45 1489.92 1105.31 1500.24 1112.87 1508.91 1120.25 1517.34 1130.45 1526.19 1141.58 1528.89 1164.49 1534.45 1184.06 1509.9 1190.57 1490.8 1197.25 1471.11 1193.73 1448.56 1179.02 1433.38 1163.32 1417.21 1138.42 1411.41 1117.73 1420.9 1110.88 1424.06 1116.8 1434.2 1123.59 1431.04 1137.42 1424.65 1154.3 1428.22 1166.07 1437.42 1178.79 1447.38 1184.24 1463.32 1181.48 1479.14 1180.02 1487.46 1176.68 1495.43 1171.64 1502.23 1166.78 1508.79 1159.04 1516.35 1150.66 1517.81 1141.05 1519.51 1131.56 1511.25 1125.18 1504.98 1118.79 1498.77 1113.46 1491.21 1110.29 1482.89 1103.44 1464.79 1107.6 1442.05 1124.3 1430.74 1130.57 1426.52 1124.77 1416.33 1118.5 1420.55zM1265.39 1468.71C1265.21 1432.03 1264.98 1395.41 1264.8 1358.73 1261.87 1360.43 1258.94 1362.13 1256.01 1363.77 1271.36 1373.44 1282.2 1389.44 1293.51 1403.26 1306.34 1419.02 1319.24 1434.73 1332.07 1450.49 1336.81 1456.29 1345.02 1447.91 1340.27 1442.17 1326.97 1425.88 1313.67 1409.59 1300.31 1393.3 1288.65 1379.06 1277.63 1363.6 1261.81 1353.63 1258.06 1351.29 1253.02 1354.4 1253.02 1358.67 1253.2 1395.35 1253.43 1431.97 1253.61 1468.65 1253.73 1476.21 1265.45 1476.27 1265.39 1468.71z"></path><path fill="#203752" d="M1264.86 1431.79C1277.69 1423.41 1290.59 1414.98 1303.42 1406.6 1306 1404.9 1307.34 1401.38 1305.59 1398.57 1303.94 1395.99 1300.31 1394.64 1297.56 1396.4 1284.73 1404.78 1271.84 1413.22 1259 1421.6 1256.43 1423.3 1255.08 1426.81 1256.84 1429.63 1258.53 1432.2 1262.11 1433.61 1264.86 1431.79zM1376.13 1310.51C1389.78 1335.47 1403.49 1360.43 1417.15 1385.34 1422.24 1394.59 1429.92 1406.19 1442.11 1399.98 1447.67 1397.17 1452.54 1392.25 1457.4 1388.38 1462.91 1383.99 1468.47 1379.65 1473.98 1375.26 1476.5 1373.27 1475.97 1368.99 1473.92 1367 1471.46 1364.53 1468.12 1365.12 1465.66 1367.05 1461.03 1370.75 1456.35 1374.38 1451.72 1378.07 1447.2 1381.64 1442.87 1385.69 1438.06 1388.79 1434.02 1391.43 1432.03 1387.85 1429.98 1384.46 1426.93 1379.3 1424.24 1373.97 1421.31 1368.69 1409.59 1347.37 1397.93 1325.98 1386.21 1304.65 1382.63 1298.03 1372.5 1303.89 1376.13 1310.51zM1521.97 1216.35C1508.67 1214.82 1494.84 1222.44 1489.16 1234.63 1483.47 1246.87 1486.87 1262.05 1496.6 1271.25 1508.96 1282.91 1526.83 1279.33 1542.13 1283.03 1557.77 1286.78 1572.95 1298.96 1567.67 1316.72 1563.75 1329.96 1544.82 1346.25 1530.88 1335.64 1524.96 1331.13 1516.64 1339.39 1522.67 1343.96 1548.22 1363.42 1583.49 1334.47 1580.33 1305.7 1578.51 1289.35 1564.98 1277.93 1550.09 1273.01 1541.89 1270.31 1533.28 1269.55 1524.66 1268.96 1516.52 1268.38 1508.08 1267.38 1502.69 1260.53 1490.91 1245.53 1503.92 1225.95 1521.91 1228.01 1529.41 1228.94 1529.41 1217.22 1521.97 1216.35zM1822.85 1439.36C1862.75 1484.18 1900.37 1530.94 1935.59 1579.51 1937.93 1582.74 1941.74 1583.38 1944.84 1580.68 1977.66 1551.86 2010.18 1522.74 2042.4 1493.2 2047.97 1488.11 2039.59 1479.9 2034.08 1485 2001.86 1514.47 1969.34 1543.65 1936.52 1572.48 1939.63 1572.89 1942.68 1573.24 1945.78 1573.65 1909.98 1524.2 1871.72 1476.62 1831.11 1430.98 1826.07 1425.41 1817.81 1433.73 1822.85 1439.36z"></path><path fill="#203752" d="M2037.65 1498.24C2057.11 1531.23 2080.43 1561.75 2107.21 1589.18 2109.49 1591.52 2113.18 1591.23 2115.47 1589.12 2167.09 1542.95 2218.71 1496.77 2270.27 1450.66 2275.9 1445.62 2267.52 1437.42 2261.95 1442.46 2210.33 1488.63 2158.71 1534.8 2107.15 1580.91 2109.9 1580.91 2112.65 1580.86 2115.41 1580.86 2089.33 1554.2 2066.72 1524.55 2047.79 1492.44 2043.98 1485.88 2033.85 1491.73 2037.65 1498.24zM1966.52 1565.57C1973.03 1573.37 1979.53 1581.16 1986.03 1588.95 1989.2 1592.76 1992.36 1596.51 1995.47 1600.32 1998.1 1603.48 2000.51 1607.58 2004.9 1608.35 2009.18 1609.11 2014.16 1607.88 2018.5 1607.64 2023.36 1607.35 2028.22 1607.23 2033.09 1607.17 2043.46 1607.12 2053.77 1607.7 2064.08 1608.81 2071.58 1609.64 2071.58 1597.92 2064.14 1597.1 2046.39 1595.16 2027.17 1593.87 2009.41 1596.57 2006.89 1596.98 2007.3 1596.28 2005.43 1594.05 2004.26 1592.64 2003.09 1591.24 2001.85 1589.77 1998.69 1585.96 1995.53 1582.21 1992.42 1578.4 1986.5 1571.31 1980.59 1564.22 1974.67 1557.14 1969.98 1551.45 1961.72 1559.83 1966.52 1565.57z"></path><path fill="#203752" d="M1976.77 1892.23C1989.55 1796.48 1998.4 1700.27 2007.24 1604.06 2007.95 1596.56 1996.23 1596.56 1995.52 1604 1986.68 1700.22 1977.83 1796.43 1965.06 1892.17 1964.06 1899.67 1975.78 1899.61 1976.77 1892.23zM2121.27 2199.26C2109.32 2093.03 2097.42 1986.68 2090.63 1879.92 2090.16 1872.42 2078.44 1872.3 2078.91 1879.86 2085.7 1986.62 2097.6 2092.91 2109.55 2199.2 2110.37 2206.58 2122.15 2206.76 2121.27 2199.26zM2087.58 1821.04C2081.6 1749.67 2074.16 1678.48 2065.31 1607.41 2064.37 1600.02 2052.65 1599.85 2053.59 1607.35 2062.44 1678.42 2069.82 1749.61 2075.86 1820.98 2076.5 1828.48 2088.22 1828.54 2087.58 1821.04z"></path><path fill="#203752" d="M2070.58 1606.93C2080.84 1597.79 2091.09 1588.65 2101.4 1579.45 2103.69 1577.4 2103.57 1573.18 2101.34 1571.19 2098.88 1568.96 2095.49 1569.08 2093.08 1571.25 2082.83 1580.39 2072.58 1589.53 2062.26 1598.73 2059.98 1600.78 2060.09 1605 2062.32 1606.99 2064.78 1609.27 2068.12 1609.16 2070.58 1606.93zM1811.78 2071.88C1821.62 2067.49 1832.87 2062.74 1843.42 2067.78 1852.56 2072.17 1860.47 2080.26 1867.67 2087.29 1882.09 2101.41 1893.22 2118.75 1909.45 2130.94 1915.49 2135.45 1921.23 2125.26 1915.25 2120.75 1906.29 2114.01 1899.26 2105.04 1892.11 2096.55 1884.55 2087.52 1876.46 2079.03 1867.62 2071.24 1859.76 2064.32 1851.03 2056.53 1840.43 2054.48 1828.3 2052.13 1816.81 2056.88 1805.92 2061.74 1799.06 2064.79 1804.92 2074.93 1811.78 2071.88zM1890.3 2321.77C1918.54 2259.78 1955.39 2202.01 1999.87 2150.44 2004.79 2144.76 1996.47 2136.5 1991.55 2142.24 1946.37 2194.56 1908.81 2253.1 1880.16 2315.97 1876.99 2322.77 1887.13 2328.69 1890.3 2321.77z"></path><path fill="#203752" d="M1998.75 2152.27C2092.79 2213.33 2200.25 2254.81 2308.01 2284.11 2351.43 2295.94 2395.43 2305.55 2439.73 2313.34 2447.11 2314.63 2450.22 2303.33 2442.77 2302.04 2312.46 2279.3 2183.32 2240.04 2066.07 2178.05 2045.1 2166.92 2024.47 2155.08 2004.55 2142.13 1998.22 2137.97 1992.42 2148.17 1998.75 2152.27zM1883.91 2331.15C1990.02 2427.65 2107.62 2514.31 2239.92 2571.32 2276.78 2587.2 2314.57 2600.74 2353.18 2611.46 2360.45 2613.51 2363.5 2602.14 2356.23 2600.15 2218.89 2561.95 2094.2 2488.41 1983.11 2400.29 1951.87 2375.5 1921.64 2349.6 1892.17 2322.77 1886.54 2317.73 1878.28 2326.05 1883.91 2331.15z"></path><path fill="#203752" d="M2406.09 1855.37C2408.79 1966.46 2398.24 2077.68 2374.28 2186.19C2367.54 2216.72 2359.75 2247.01 2350.96 2277.07C2348.85 2284.34 2360.16 2287.32 2362.27 2280.12C2393.61 2173.01 2412.07 2062.15 2416.93 1950.64C2418.34 1918.95 2418.57 1887.19 2417.81 1855.43C2417.64 1847.87 2405.92 1847.81 2406.09 1855.37Z"></path></svg>